<mxfile host="app.diagrams.net" agent="Mozilla/5.0 (Windows NT 10.0; Win64; x64; rv:140.0) Gecko/20100101 Firefox/140.0" version="27.1.6">
  <diagram name="Page-1" id="77r_etyMG6uiAlGz0Fmr">
    <mxGraphModel dx="1925" dy="648" grid="1" gridSize="10" guides="1" tooltips="1" connect="1" arrows="1" fold="1" page="1" pageScale="1" pageWidth="850" pageHeight="1100" math="0" shadow="0">
      <root>
        <mxCell id="0" />
        <mxCell id="1" parent="0" />
        <mxCell id="un3O-d6Z-xGx0OLYczm8-82" value="" style="rounded=0;whiteSpace=wrap;html=1;fillColor=#fff2cc;strokeColor=#d6b656;" parent="1" vertex="1">
          <mxGeometry x="-30" y="170" width="540" height="350" as="geometry" />
        </mxCell>
        <mxCell id="un3O-d6Z-xGx0OLYczm8-3" style="edgeStyle=orthogonalEdgeStyle;rounded=0;orthogonalLoop=1;jettySize=auto;html=1;exitX=0;exitY=1;exitDx=0;exitDy=0;exitPerimeter=0;dashed=1;dashPattern=12 12;fillColor=#ffe6cc;strokeColor=#d79b00;entryX=0.25;entryY=0;entryDx=0;entryDy=0;" parent="1" source="un3O-d6Z-xGx0OLYczm8-1" target="un3O-d6Z-xGx0OLYczm8-45" edge="1">
          <mxGeometry relative="1" as="geometry">
            <mxPoint x="180" y="140" as="sourcePoint" />
            <mxPoint x="380" y="240" as="targetPoint" />
            <Array as="points">
              <mxPoint x="186" y="130" />
            </Array>
          </mxGeometry>
        </mxCell>
        <mxCell id="un3O-d6Z-xGx0OLYczm8-15" value="guesses Pokemon" style="edgeLabel;html=1;align=center;verticalAlign=middle;resizable=0;points=[];" parent="un3O-d6Z-xGx0OLYczm8-3" vertex="1" connectable="0">
          <mxGeometry x="-0.2437" y="-1" relative="1" as="geometry">
            <mxPoint x="-35" y="19" as="offset" />
          </mxGeometry>
        </mxCell>
        <mxCell id="un3O-d6Z-xGx0OLYczm8-46" style="edgeStyle=orthogonalEdgeStyle;rounded=0;orthogonalLoop=1;jettySize=auto;html=1;exitX=1;exitY=1;exitDx=0;exitDy=0;exitPerimeter=0;entryX=0.75;entryY=0;entryDx=0;entryDy=0;fillColor=#ffe6cc;strokeColor=#d79b00;dashed=1;dashPattern=12 12;" parent="1" source="un3O-d6Z-xGx0OLYczm8-1" target="un3O-d6Z-xGx0OLYczm8-45" edge="1">
          <mxGeometry relative="1" as="geometry" />
        </mxCell>
        <mxCell id="un3O-d6Z-xGx0OLYczm8-47" value="views&lt;br&gt;Highscores" style="edgeLabel;html=1;align=center;verticalAlign=middle;resizable=0;points=[];" parent="un3O-d6Z-xGx0OLYczm8-46" vertex="1" connectable="0">
          <mxGeometry x="-0.0099" y="2" relative="1" as="geometry">
            <mxPoint x="2" y="-1" as="offset" />
          </mxGeometry>
        </mxCell>
        <mxCell id="un3O-d6Z-xGx0OLYczm8-1" value="&lt;div&gt;User&lt;/div&gt;&lt;div&gt;&lt;br&gt;&lt;/div&gt;" style="shape=umlActor;verticalLabelPosition=bottom;verticalAlign=top;html=1;outlineConnect=0;" parent="1" vertex="1">
          <mxGeometry x="185" y="40" width="50" height="90" as="geometry" />
        </mxCell>
        <mxCell id="un3O-d6Z-xGx0OLYczm8-18" style="edgeStyle=orthogonalEdgeStyle;rounded=0;orthogonalLoop=1;jettySize=auto;html=1;exitX=0.25;exitY=1;exitDx=0;exitDy=0;entryX=0.25;entryY=0;entryDx=0;entryDy=0;dashed=1;dashPattern=8 8;" parent="1" source="un3O-d6Z-xGx0OLYczm8-2" target="un3O-d6Z-xGx0OLYczm8-48" edge="1">
          <mxGeometry relative="1" as="geometry">
            <mxPoint x="180" y="430" as="targetPoint" />
          </mxGeometry>
        </mxCell>
        <mxCell id="un3O-d6Z-xGx0OLYczm8-19" value="request&lt;br&gt;Pokemon&lt;br&gt;Data" style="edgeLabel;html=1;align=center;verticalAlign=middle;resizable=0;points=[];" parent="un3O-d6Z-xGx0OLYczm8-18" vertex="1" connectable="0">
          <mxGeometry x="-0.1" y="-1" relative="1" as="geometry">
            <mxPoint as="offset" />
          </mxGeometry>
        </mxCell>
        <mxCell id="un3O-d6Z-xGx0OLYczm8-86" style="edgeStyle=orthogonalEdgeStyle;rounded=0;orthogonalLoop=1;jettySize=auto;html=1;exitX=1;exitY=0;exitDx=0;exitDy=0;entryX=0;entryY=0.25;entryDx=0;entryDy=0;dashed=1;dashPattern=8 8;" parent="1" source="un3O-d6Z-xGx0OLYczm8-2" target="un3O-d6Z-xGx0OLYczm8-84" edge="1">
          <mxGeometry relative="1" as="geometry" />
        </mxCell>
        <mxCell id="un3O-d6Z-xGx0OLYczm8-88" value="login" style="edgeLabel;html=1;align=center;verticalAlign=middle;resizable=0;points=[];" parent="un3O-d6Z-xGx0OLYczm8-86" vertex="1" connectable="0">
          <mxGeometry x="0.0722" y="-2" relative="1" as="geometry">
            <mxPoint x="-1" as="offset" />
          </mxGeometry>
        </mxCell>
        <mxCell id="un3O-d6Z-xGx0OLYczm8-90" style="edgeStyle=orthogonalEdgeStyle;rounded=0;orthogonalLoop=1;jettySize=auto;html=1;exitX=1;exitY=0.5;exitDx=0;exitDy=0;entryX=0;entryY=0.25;entryDx=0;entryDy=0;dashed=1;dashPattern=8 8;fillColor=#d5e8d4;strokeColor=#82b366;" parent="1" source="un3O-d6Z-xGx0OLYczm8-2" target="un3O-d6Z-xGx0OLYczm8-85" edge="1">
          <mxGeometry relative="1" as="geometry" />
        </mxCell>
        <mxCell id="un3O-d6Z-xGx0OLYczm8-92" value="request/&lt;br&gt;store&lt;br&gt;highscore" style="edgeLabel;html=1;align=center;verticalAlign=middle;resizable=0;points=[];" parent="un3O-d6Z-xGx0OLYczm8-90" vertex="1" connectable="0">
          <mxGeometry x="-0.2154" y="1" relative="1" as="geometry">
            <mxPoint as="offset" />
          </mxGeometry>
        </mxCell>
        <mxCell id="Tre8eHC14JD8qoJ1ZiGg-5" style="edgeStyle=orthogonalEdgeStyle;rounded=0;orthogonalLoop=1;jettySize=auto;html=1;exitX=0;exitY=0.25;exitDx=0;exitDy=0;entryX=1;entryY=0.25;entryDx=0;entryDy=0;dashed=1;dashPattern=8 8;" edge="1" parent="1" source="un3O-d6Z-xGx0OLYczm8-2" target="Tre8eHC14JD8qoJ1ZiGg-3">
          <mxGeometry relative="1" as="geometry" />
        </mxCell>
        <mxCell id="Tre8eHC14JD8qoJ1ZiGg-6" value="guess" style="edgeLabel;html=1;align=center;verticalAlign=middle;resizable=0;points=[];" vertex="1" connectable="0" parent="Tre8eHC14JD8qoJ1ZiGg-5">
          <mxGeometry x="-0.1023" y="-1" relative="1" as="geometry">
            <mxPoint as="offset" />
          </mxGeometry>
        </mxCell>
        <mxCell id="un3O-d6Z-xGx0OLYczm8-2" value="DexQuiz API" style="rounded=0;whiteSpace=wrap;html=1;fillColor=#f8cecc;strokeColor=#b85450;" parent="1" vertex="1">
          <mxGeometry x="150" y="270" width="120" height="80" as="geometry" />
        </mxCell>
        <mxCell id="un3O-d6Z-xGx0OLYczm8-20" style="edgeStyle=orthogonalEdgeStyle;rounded=0;orthogonalLoop=1;jettySize=auto;html=1;exitX=0.75;exitY=0;exitDx=0;exitDy=0;entryX=0.75;entryY=1;entryDx=0;entryDy=0;dashed=1;dashPattern=8 8;" parent="1" source="un3O-d6Z-xGx0OLYczm8-48" target="un3O-d6Z-xGx0OLYczm8-2" edge="1">
          <mxGeometry relative="1" as="geometry">
            <mxPoint x="240" y="430" as="sourcePoint" />
          </mxGeometry>
        </mxCell>
        <mxCell id="un3O-d6Z-xGx0OLYczm8-21" value="Pokemon&lt;br&gt;Data" style="edgeLabel;html=1;align=center;verticalAlign=middle;resizable=0;points=[];" parent="un3O-d6Z-xGx0OLYczm8-20" vertex="1" connectable="0">
          <mxGeometry x="-0.2" y="-1" relative="1" as="geometry">
            <mxPoint as="offset" />
          </mxGeometry>
        </mxCell>
        <mxCell id="un3O-d6Z-xGx0OLYczm8-33" value="" style="rounded=0;whiteSpace=wrap;html=1;" parent="1" vertex="1">
          <mxGeometry x="530" y="230" width="310" height="120" as="geometry" />
        </mxCell>
        <mxCell id="un3O-d6Z-xGx0OLYczm8-34" style="edgeStyle=orthogonalEdgeStyle;rounded=0;orthogonalLoop=1;jettySize=auto;html=1;exitX=0;exitY=0.25;exitDx=0;exitDy=0;entryX=1;entryY=0.25;entryDx=0;entryDy=0;dashed=1;dashPattern=8 8;fillColor=#d5e8d4;strokeColor=#82b366;" parent="1" edge="1">
          <mxGeometry relative="1" as="geometry">
            <mxPoint x="670" y="254.5" as="sourcePoint" />
            <mxPoint x="550" y="254.5" as="targetPoint" />
          </mxGeometry>
        </mxCell>
        <mxCell id="un3O-d6Z-xGx0OLYczm8-37" value="&lt;div&gt;Authentication required&lt;/div&gt;" style="text;html=1;align=center;verticalAlign=middle;whiteSpace=wrap;rounded=0;" parent="1" vertex="1">
          <mxGeometry x="740" y="240" width="60" height="30" as="geometry" />
        </mxCell>
        <mxCell id="un3O-d6Z-xGx0OLYczm8-38" style="edgeStyle=orthogonalEdgeStyle;rounded=0;orthogonalLoop=1;jettySize=auto;html=1;dashed=1;dashPattern=12 12;fillColor=#ffe6cc;strokeColor=#d79b00;" parent="1" edge="1">
          <mxGeometry relative="1" as="geometry">
            <mxPoint x="560" y="289.5" as="sourcePoint" />
            <mxPoint x="670" y="290" as="targetPoint" />
            <Array as="points">
              <mxPoint x="550" y="289.5" />
              <mxPoint x="780" y="289.5" />
            </Array>
          </mxGeometry>
        </mxCell>
        <mxCell id="un3O-d6Z-xGx0OLYczm8-41" value="user&lt;br&gt;action" style="text;html=1;align=center;verticalAlign=middle;whiteSpace=wrap;rounded=0;" parent="1" vertex="1">
          <mxGeometry x="740" y="275" width="60" height="30" as="geometry" />
        </mxCell>
        <mxCell id="un3O-d6Z-xGx0OLYczm8-42" style="edgeStyle=orthogonalEdgeStyle;rounded=0;orthogonalLoop=1;jettySize=auto;html=1;exitX=0;exitY=0.75;exitDx=0;exitDy=0;entryX=1;entryY=0.75;entryDx=0;entryDy=0;dashed=1;dashPattern=8 8;" parent="1" edge="1">
          <mxGeometry relative="1" as="geometry">
            <mxPoint x="670" y="324.5" as="sourcePoint" />
            <mxPoint x="550" y="324.5" as="targetPoint" />
          </mxGeometry>
        </mxCell>
        <mxCell id="un3O-d6Z-xGx0OLYczm8-44" value="data flow" style="text;html=1;align=center;verticalAlign=middle;whiteSpace=wrap;rounded=0;" parent="1" vertex="1">
          <mxGeometry x="740" y="310" width="60" height="30" as="geometry" />
        </mxCell>
        <mxCell id="un3O-d6Z-xGx0OLYczm8-45" value="Frontend" style="rounded=0;whiteSpace=wrap;html=1;fillColor=#f8cecc;strokeColor=#b85450;" parent="1" vertex="1">
          <mxGeometry x="162.5" y="250" width="95" height="20" as="geometry" />
        </mxCell>
        <mxCell id="un3O-d6Z-xGx0OLYczm8-48" value="PokeAPI" style="rounded=0;whiteSpace=wrap;html=1;fillColor=#e1d5e7;strokeColor=#9673a6;" parent="1" vertex="1">
          <mxGeometry x="150" y="550" width="120" height="60" as="geometry" />
        </mxCell>
        <mxCell id="un3O-d6Z-xGx0OLYczm8-66" value="Database" style="rounded=0;whiteSpace=wrap;html=1;fillColor=#d5e8d4;strokeColor=#82b366;" parent="1" vertex="1">
          <mxGeometry x="365" y="190" width="120" height="290" as="geometry" />
        </mxCell>
        <mxCell id="un3O-d6Z-xGx0OLYczm8-71" value="" style="rounded=0;whiteSpace=wrap;html=1;" parent="1" vertex="1">
          <mxGeometry x="530" y="347.5" width="310" height="162.5" as="geometry" />
        </mxCell>
        <mxCell id="un3O-d6Z-xGx0OLYczm8-73" value="API" style="text;html=1;align=center;verticalAlign=middle;whiteSpace=wrap;rounded=0;" parent="1" vertex="1">
          <mxGeometry x="740" y="357.5" width="60" height="30" as="geometry" />
        </mxCell>
        <mxCell id="un3O-d6Z-xGx0OLYczm8-77" value="external&lt;br&gt;service" style="text;html=1;align=center;verticalAlign=middle;whiteSpace=wrap;rounded=0;" parent="1" vertex="1">
          <mxGeometry x="740" y="395" width="60" height="30" as="geometry" />
        </mxCell>
        <mxCell id="un3O-d6Z-xGx0OLYczm8-78" value="DexQuiz API" style="rounded=0;whiteSpace=wrap;html=1;fillColor=#f8cecc;strokeColor=#b85450;" parent="1" vertex="1">
          <mxGeometry x="550" y="360" width="110" height="25" as="geometry" />
        </mxCell>
        <mxCell id="un3O-d6Z-xGx0OLYczm8-80" value="ext. Service" style="rounded=0;whiteSpace=wrap;html=1;fillColor=#e1d5e7;strokeColor=#9673a6;" parent="1" vertex="1">
          <mxGeometry x="550" y="395" width="110" height="25" as="geometry" />
        </mxCell>
        <mxCell id="un3O-d6Z-xGx0OLYczm8-83" value="DexQuiz Application" style="text;html=1;align=center;verticalAlign=middle;whiteSpace=wrap;rounded=0;" parent="1" vertex="1">
          <mxGeometry x="360" y="477.5" width="125" height="60" as="geometry" />
        </mxCell>
        <mxCell id="un3O-d6Z-xGx0OLYczm8-87" style="edgeStyle=orthogonalEdgeStyle;rounded=0;orthogonalLoop=1;jettySize=auto;html=1;exitX=0;exitY=0.75;exitDx=0;exitDy=0;entryX=1;entryY=0.25;entryDx=0;entryDy=0;dashed=1;dashPattern=8 8;" parent="1" source="un3O-d6Z-xGx0OLYczm8-84" target="un3O-d6Z-xGx0OLYczm8-2" edge="1">
          <mxGeometry relative="1" as="geometry" />
        </mxCell>
        <mxCell id="un3O-d6Z-xGx0OLYczm8-89" value="token" style="edgeLabel;html=1;align=center;verticalAlign=middle;resizable=0;points=[];" parent="un3O-d6Z-xGx0OLYczm8-87" vertex="1" connectable="0">
          <mxGeometry x="-0.0429" y="-2" relative="1" as="geometry">
            <mxPoint as="offset" />
          </mxGeometry>
        </mxCell>
        <mxCell id="un3O-d6Z-xGx0OLYczm8-84" value="User Management&lt;br&gt;Database" style="rounded=0;whiteSpace=wrap;html=1;fillColor=#d5e8d4;strokeColor=#82b366;" parent="1" vertex="1">
          <mxGeometry x="320" y="210" width="160" height="80" as="geometry" />
        </mxCell>
        <mxCell id="un3O-d6Z-xGx0OLYczm8-91" value="highscore&lt;br&gt;data" style="edgeStyle=orthogonalEdgeStyle;rounded=0;orthogonalLoop=1;jettySize=auto;html=1;exitX=0;exitY=0.75;exitDx=0;exitDy=0;entryX=1;entryY=1;entryDx=0;entryDy=0;fillColor=#d5e8d4;strokeColor=#82b366;dashed=1;dashPattern=8 8;" parent="1" source="un3O-d6Z-xGx0OLYczm8-85" target="un3O-d6Z-xGx0OLYczm8-2" edge="1">
          <mxGeometry relative="1" as="geometry" />
        </mxCell>
        <mxCell id="un3O-d6Z-xGx0OLYczm8-85" value="Highscore&lt;br&gt;database" style="rounded=0;whiteSpace=wrap;html=1;fillColor=#d5e8d4;strokeColor=#82b366;" parent="1" vertex="1">
          <mxGeometry x="320" y="370" width="160" height="80" as="geometry" />
        </mxCell>
        <mxCell id="Tre8eHC14JD8qoJ1ZiGg-1" value="Database" style="rounded=0;whiteSpace=wrap;html=1;fillColor=#d5e8d4;strokeColor=#82b366;" vertex="1" parent="1">
          <mxGeometry x="550" y="430" width="110" height="25" as="geometry" />
        </mxCell>
        <mxCell id="Tre8eHC14JD8qoJ1ZiGg-2" value="container" style="text;html=1;align=center;verticalAlign=middle;whiteSpace=wrap;rounded=0;" vertex="1" parent="1">
          <mxGeometry x="740" y="427.5" width="60" height="30" as="geometry" />
        </mxCell>
        <mxCell id="Tre8eHC14JD8qoJ1ZiGg-4" style="edgeStyle=orthogonalEdgeStyle;rounded=0;orthogonalLoop=1;jettySize=auto;html=1;exitX=1;exitY=0.75;exitDx=0;exitDy=0;entryX=0;entryY=0.75;entryDx=0;entryDy=0;dashed=1;dashPattern=8 8;" edge="1" parent="1" source="Tre8eHC14JD8qoJ1ZiGg-3" target="un3O-d6Z-xGx0OLYczm8-2">
          <mxGeometry relative="1" as="geometry" />
        </mxCell>
        <mxCell id="Tre8eHC14JD8qoJ1ZiGg-7" value="&lt;div&gt;question &amp;amp;&lt;/div&gt;&lt;div&gt;score data&lt;/div&gt;" style="edgeLabel;html=1;align=center;verticalAlign=middle;resizable=0;points=[];" vertex="1" connectable="0" parent="Tre8eHC14JD8qoJ1ZiGg-4">
          <mxGeometry x="0.1316" y="-1" relative="1" as="geometry">
            <mxPoint x="-10" y="4" as="offset" />
          </mxGeometry>
        </mxCell>
        <mxCell id="Tre8eHC14JD8qoJ1ZiGg-3" value="&lt;div&gt;Redis&lt;/div&gt;&lt;div&gt;temporary&lt;/div&gt;&lt;div&gt;storage&lt;/div&gt;" style="rounded=0;whiteSpace=wrap;html=1;fillColor=#d5e8d4;strokeColor=#82b366;" vertex="1" parent="1">
          <mxGeometry x="-20" y="270" width="80" height="77.5" as="geometry" />
        </mxCell>
      </root>
    </mxGraphModel>
  </diagram>
</mxfile>
